<?xml version="1.0" encoding="utf-8"?>
<!-- Generator: Adobe Illustrator 15.0.0, SVG Export Plug-In . SVG Version: 6.00 Build 0)  -->
<!DOCTYPE svg PUBLIC "-//W3C//DTD SVG 1.1//EN" "http://www.w3.org/Graphics/SVG/1.1/DTD/svg11.dtd">
<svg version="1.1" id="Layer_1" xmlns="http://www.w3.org/2000/svg" xmlns:xlink="http://www.w3.org/1999/xlink" x="0px" y="0px"
	 width="45px" height="45px" viewBox="76 0 45 45" enable-background="new 76 0 45 45" xml:space="preserve">
<g>
	<defs>
		<rect id="SVGID_1_" x="76" width="45" height="45"/>
	</defs>
	<clipPath id="SVGID_2_">
		<use xlink:href="#SVGID_1_"  overflow="visible"/>
	</clipPath>
	<g clip-path="url(#SVGID_2_)">
		<path fill="#FFFFFF" d="M87.074,14.502c0.485,0,0.879-0.394,0.879-0.879s-0.394-0.879-0.879-0.879
			c-0.485,0-0.879,0.394-0.879,0.879S86.589,14.502,87.074,14.502z"/>
		<path fill="#FFFFFF" d="M94.105,16.26h2.637v10.195c0,0.485,0.394,0.879,0.879,0.879h3.516c0.485,0,0.879-0.394,0.879-0.879V16.26
			h2.637c0.485,0,0.879-0.394,0.879-0.879v-3.516c0-0.485-0.394-0.879-0.879-0.879h-2.637V6.592c0-0.485-0.394-0.879-0.879-0.879
			h-3.516c-0.485,0-0.879,0.394-0.879,0.879v4.395h-2.637c-0.485,0-0.879,0.394-0.879,0.879v3.516
			C93.227,15.866,93.62,16.26,94.105,16.26z M94.984,12.744h2.637c0.485,0,0.879-0.394,0.879-0.879V7.471h1.758v4.395
			c0,0.485,0.394,0.879,0.879,0.879h2.637v1.758h-2.637c-0.485,0-0.879,0.394-0.879,0.879v10.195H98.5V15.381
			c0-0.485-0.394-0.879-0.879-0.879h-2.637V12.744z"/>
		<path fill="#FFFFFF" d="M86.195,41.396h1.758v2.637c0,0.338,0.193,0.646,0.498,0.792c0.305,0.146,0.666,0.105,0.93-0.105
			l3.846-3.077l3.846,3.077c0.159,0.127,0.353,0.192,0.549,0.192c0.129,0,0.259-0.028,0.381-0.087
			c0.305-0.146,0.498-0.454,0.498-0.792v-2.637h16.699c0.485,0,0.879-0.394,0.879-0.879V0.791c0-0.485-0.394-0.879-0.879-0.879
			H88.832c-4.334,0-7.91,3.503-7.91,7.91v28.301C80.922,39.031,83.287,41.396,86.195,41.396z M86.195,39.639
			c-1.938,0-3.516-1.577-3.516-3.516s1.577-3.516,3.516-3.516h28.125v2.637H87.074c-0.485,0-0.879,0.394-0.879,0.879
			s0.394,0.879,0.879,0.879h0.879v2.637H86.195z M96.742,42.205l-2.967-2.374c-0.321-0.257-0.777-0.257-1.098,0l-2.967,2.374v-5.203
			h7.031V42.205z M98.5,39.639v-2.637h15.82v2.637H98.5z M86.195,2.262v7.846c0,0.485,0.394,0.879,0.879,0.879
			s0.879-0.394,0.879-0.879V1.733c0.291-0.042,0.584-0.063,0.879-0.063h25.488v29.18H87.953V17.139c0-0.485-0.394-0.879-0.879-0.879
			s-0.879,0.394-0.879,0.879V30.85c-1.35,0-2.582,0.51-3.516,1.348V7.822C82.68,5.41,84.08,3.263,86.195,2.262z"/>
	</g>
</g>
</svg>
