<?xml version="1.0" encoding="utf-8"?>
<!-- Generator: Adobe Illustrator 15.0.0, SVG Export Plug-In . SVG Version: 6.00 Build 0)  -->
<!DOCTYPE svg PUBLIC "-//W3C//DTD SVG 1.1//EN" "http://www.w3.org/Graphics/SVG/1.1/DTD/svg11.dtd">
<svg version="1.1" id="Layer_1" xmlns="http://www.w3.org/2000/svg" xmlns:xlink="http://www.w3.org/1999/xlink" x="0px" y="0px"
	 width="45px" height="45px" viewBox="0 0 45 45" enable-background="new 0 0 45 45" xml:space="preserve">
<path fill="#333333" d="M-11.469,6.945"/>
<g>
	<g>
		<defs>
			<rect id="SVGID_1_" y="0.088" width="45" height="45"/>
		</defs>
		<clipPath id="SVGID_2_">
			<use xlink:href="#SVGID_1_"  overflow="visible"/>
		</clipPath>
		<g clip-path="url(#SVGID_2_)">
			<path fill="#333333" d="M11.074,14.59c0.484,0,0.879-0.394,0.879-0.879s-0.395-0.879-0.879-0.879
				c-0.485,0-0.879,0.394-0.879,0.879S10.589,14.59,11.074,14.59z"/>
			<path fill="#333333" d="M18.105,16.348h2.637v10.195c0,0.484,0.395,0.879,0.879,0.879h3.516c0.485,0,0.879-0.395,0.879-0.879
				V16.348h2.637c0.486,0,0.88-0.394,0.88-0.879v-3.516c0-0.485-0.394-0.879-0.88-0.879h-2.637V6.68
				c0-0.485-0.394-0.879-0.879-0.879h-3.516c-0.484,0-0.879,0.394-0.879,0.879v4.395h-2.637c-0.485,0-0.879,0.394-0.879,0.879v3.516
				C17.227,15.954,17.62,16.348,18.105,16.348z M18.984,12.832h2.637c0.484,0,0.879-0.394,0.879-0.879V7.559h1.758v4.395
				c0,0.485,0.395,0.879,0.879,0.879h2.637v1.758h-2.637c-0.484,0-0.879,0.394-0.879,0.879v10.195H22.5V15.469
				c0-0.485-0.395-0.879-0.879-0.879h-2.637V12.832z"/>
			<path fill="#333333" d="M10.195,41.484h1.758v2.637c0,0.338,0.193,0.646,0.498,0.792s0.666,0.104,0.93-0.104l3.846-3.078
				l3.847,3.078C21.23,44.936,21.425,45,21.621,45c0.129,0,0.26-0.027,0.381-0.087c0.305-0.146,0.498-0.454,0.498-0.792v-2.637
				h16.699c0.484,0,0.879-0.395,0.879-0.879V0.879C40.078,0.394,39.684,0,39.199,0H12.832c-4.334,0-7.91,3.503-7.91,7.91v28.301
				C4.922,39.119,7.288,41.484,10.195,41.484z M10.195,39.727c-1.938,0-3.516-1.576-3.516-3.516s1.576-3.516,3.516-3.516H38.32
				v2.637H11.074c-0.485,0-0.879,0.395-0.879,0.879s0.394,0.879,0.879,0.879h0.879v2.637H10.195L10.195,39.727z M20.742,42.293
				l-2.967-2.374c-0.321-0.257-0.777-0.257-1.099,0l-2.967,2.374V37.09h7.031L20.742,42.293L20.742,42.293z M22.5,39.727V37.09
				h15.82v2.637H22.5z M10.195,2.35v7.846c0,0.485,0.394,0.879,0.879,0.879c0.484,0,0.879-0.394,0.879-0.879V1.821
				c0.291-0.042,0.584-0.063,0.879-0.063H38.32v29.18H11.953v-13.71c0-0.485-0.395-0.879-0.879-0.879
				c-0.485,0-0.879,0.394-0.879,0.879v13.71c-1.35,0-2.582,0.511-3.516,1.349V7.91C6.68,5.498,8.08,3.351,10.195,2.35z"/>
		</g>
	</g>
</g>
</svg>
