<svg width="197" height="45" viewBox="0 0 197 45" fill="none" xmlns="http://www.w3.org/2000/svg">
<path d="M74.7656 25.8516C74.7656 26.138 74.5833 27.1406 74.2188 28.8594C73.8542 30.5521 73.5938 31.4375 73.4375 31.5156C71.5365 32.6615 68.4245 33.2344 64.1016 33.2344C60.6641 33.2344 57.7344 31.9714 55.3125 29.4453C52.9167 26.9193 51.7188 23.9115 51.7188 20.4219C51.7188 16.724 52.9557 13.5599 55.4297 10.9297C57.9036 8.27344 60.9375 6.94531 64.5312 6.94531C67.6042 6.94531 70.7682 7.27083 74.0234 7.92188C73.9714 11.4115 73.9453 13.2865 73.9453 13.5469C73.9453 13.9375 73.6719 14.1328 73.125 14.1328C72.8646 14.1328 72.6953 14.0677 72.6172 13.9375C72.5391 13.599 72.4349 13.2604 72.3047 12.9219C72.2005 12.5573 71.9531 12.1016 71.5625 11.5547C71.1979 10.9818 70.7422 10.5 70.1953 10.1094C69.6745 9.69271 68.9193 9.34115 67.9297 9.05469C66.9661 8.74219 65.8724 8.58594 64.6484 8.58594C62.0964 8.58594 59.9219 9.71875 58.125 11.9844C56.3281 14.224 55.4297 16.763 55.4297 19.6016C55.4297 21.7109 55.7943 23.651 56.5234 25.4219C57.2526 27.1927 58.3984 28.6641 59.9609 29.8359C61.5495 30.9818 63.4245 31.5547 65.5859 31.5547C68.1641 31.5547 70.1562 30.7995 71.5625 29.2891C71.9271 28.8984 72.2396 28.3906 72.5 27.7656C72.7865 27.1146 72.9948 26.5807 73.125 26.1641C73.2812 25.7214 73.3984 25.5 73.4766 25.5C73.6328 25.5 73.8151 25.526 74.0234 25.5781C74.2578 25.6302 74.4401 25.6823 74.5703 25.7344L74.7656 25.8516Z" fill="#333333"/>
<path d="M95.8297 27.7266V20.8516C95.8297 20.8516 95.8036 20.7995 95.7516 20.6953C93.3036 20.6432 91.3766 20.6172 89.9703 20.6172C85.9599 20.6172 83.9547 20.6823 83.9547 20.8125V27.5703C83.9547 29.0807 84.0719 30.2917 84.3063 31.2031C84.3583 31.3854 84.7229 31.5677 85.4 31.75C86.0771 31.9062 86.5458 31.9844 86.8063 31.9844C86.8844 31.9844 86.9234 32.1406 86.9234 32.4531C86.9495 32.7656 86.9365 32.987 86.8844 33.1172C84.2802 32.987 82.7698 32.9219 82.3531 32.9219C82.2229 32.9219 80.6604 32.987 77.6656 33.1172C77.5615 33.013 77.5094 32.8177 77.5094 32.5312C77.5094 32.1667 77.5615 31.9844 77.6656 31.9844C78.0042 31.9844 78.499 31.9062 79.15 31.75C79.8271 31.5938 80.2047 31.4115 80.2828 31.2031C80.4651 30.5 80.5562 29.3411 80.5562 27.7266V12.5703C80.5562 10.9557 80.4651 9.79688 80.2828 9.09375C80.2047 8.88542 79.8271 8.70312 79.15 8.54688C78.499 8.36458 78.0042 8.27344 77.6656 8.27344C77.5615 8.27344 77.5094 8.10417 77.5094 7.76562C77.5094 7.45312 77.5615 7.24479 77.6656 7.14062C78.0042 7.16667 78.6943 7.21875 79.7359 7.29688C80.7776 7.34896 81.65 7.375 82.3531 7.375C82.874 7.375 83.3818 7.36198 83.8766 7.33594C84.3714 7.3099 84.9052 7.28385 85.4781 7.25781C86.051 7.20573 86.5198 7.16667 86.8844 7.14062C86.9365 7.24479 86.9495 7.46615 86.9234 7.80469C86.9234 8.11719 86.8844 8.27344 86.8063 8.27344C86.5458 8.27344 86.0771 8.36458 85.4 8.54688C84.7229 8.72917 84.3583 8.91146 84.3063 9.09375C84.0719 10.0052 83.9547 11.2161 83.9547 12.7266V18.5469L84.0328 18.6641C86.5849 18.7161 88.5641 18.7422 89.9703 18.7422C91.4807 18.7422 93.4078 18.7161 95.7516 18.6641C95.8036 18.612 95.8297 18.5599 95.8297 18.5078V12.5703C95.8297 10.9557 95.7385 9.79688 95.5563 9.09375C95.4781 8.88542 95.1005 8.70312 94.4234 8.54688C93.7724 8.36458 93.2776 8.27344 92.9391 8.27344C92.8349 8.27344 92.7828 8.11719 92.7828 7.80469C92.7828 7.46615 92.8349 7.24479 92.9391 7.14062C93.2516 7.16667 93.9417 7.21875 95.0094 7.29688C96.0771 7.34896 96.9625 7.375 97.6656 7.375C98.1604 7.375 98.6552 7.36198 99.15 7.33594C99.6448 7.3099 100.166 7.28385 100.713 7.25781C101.285 7.20573 101.754 7.16667 102.119 7.14062C102.171 7.29688 102.197 7.49219 102.197 7.72656C102.197 8.09115 102.145 8.27344 102.041 8.27344C101.78 8.27344 101.311 8.36458 100.634 8.54688C99.9573 8.72917 99.5927 8.91146 99.5406 9.09375C99.3323 9.90104 99.2281 11.112 99.2281 12.7266V27.5703C99.2281 29.1849 99.3323 30.3958 99.5406 31.2031C99.5927 31.3854 99.9573 31.5677 100.634 31.75C101.311 31.9062 101.78 31.9844 102.041 31.9844C102.145 31.9844 102.197 32.1797 102.197 32.5703C102.197 32.7786 102.171 32.9609 102.119 33.1172C99.5146 32.987 98.0302 32.9219 97.6656 32.9219C97.5094 32.9219 95.9339 32.987 92.9391 33.1172C92.8349 33.013 92.7828 32.8047 92.7828 32.4922C92.7828 32.1536 92.8349 31.9844 92.9391 31.9844C93.2776 31.9844 93.7724 31.9062 94.4234 31.75C95.1005 31.5938 95.4781 31.4115 95.5563 31.2031C95.7385 30.5 95.8297 29.3411 95.8297 27.7266Z" fill="#333333"/>
<path d="M118.3 7.21875L126.113 27.8438C126.581 29.0677 126.959 30.0052 127.245 30.6562C127.402 31.0469 127.805 31.3724 128.456 31.6328C129.107 31.8672 129.589 31.9844 129.902 31.9844C130.006 31.9844 130.058 32.2318 130.058 32.7266C130.058 32.8307 130.032 32.9609 129.98 33.1172C127.376 32.987 125.943 32.9219 125.683 32.9219C125.657 32.9219 124.146 32.987 121.152 33.1172C121.047 33.013 120.995 32.8047 120.995 32.4922C121.021 32.1536 121.086 31.9844 121.191 31.9844C121.503 31.9844 121.894 31.9193 122.363 31.7891C122.831 31.6589 123.105 31.4896 123.183 31.2812C123.235 31.0729 123.261 30.8646 123.261 30.6562C123.261 30.3177 123.209 29.9271 123.105 29.4844C123.027 29.0156 122.948 28.651 122.87 28.3906L121.113 23.5469C121.034 23.4427 120.956 23.3906 120.878 23.3906C119.863 23.3125 118.873 23.2734 117.909 23.2734C116.555 23.2734 114.902 23.3385 112.948 23.4688L112.753 23.5859L111.073 27.8828C110.631 29.1849 110.409 30.0833 110.409 30.5781C110.409 30.9427 110.514 31.2031 110.722 31.3594C110.956 31.5417 111.334 31.6979 111.855 31.8281C112.376 31.9323 112.753 31.9844 112.987 31.9844C113.066 31.9844 113.105 32.1406 113.105 32.4531C113.131 32.7656 113.118 32.987 113.066 33.1172C110.461 32.987 109.12 32.9219 109.042 32.9219C108.521 32.9219 108.066 32.9349 107.675 32.9609C107.284 32.987 106.842 33.013 106.347 33.0391C105.878 33.0651 105.422 33.0911 104.98 33.1172C104.876 33.013 104.823 32.8177 104.823 32.5312C104.823 32.1667 104.876 31.9844 104.98 31.9844C105.292 31.9844 105.696 31.9193 106.191 31.7891C106.685 31.6589 107.024 31.4766 107.206 31.2422C107.753 30.5391 108.365 29.3151 109.042 27.5703L115.839 10.1094C115.891 9.97917 115.956 9.77083 116.034 9.48438C116.139 9.19792 116.217 8.98958 116.269 8.85938C116.321 8.70312 116.399 8.52083 116.503 8.3125C116.607 8.07812 116.698 7.90885 116.777 7.80469C116.855 7.70052 116.946 7.58333 117.05 7.45312C117.18 7.32292 117.31 7.23177 117.441 7.17969C117.597 7.1276 117.766 7.10156 117.948 7.10156L118.3 7.21875ZM113.769 21.3203C115.123 21.3724 116.047 21.3984 116.542 21.3984C117.688 21.3984 118.873 21.3594 120.097 21.2812L120.214 21.0859L117.05 12.4531L113.691 21.1641C113.691 21.2682 113.717 21.3203 113.769 21.3203Z" fill="#333333"/>
<path d="M142.372 8.9375C141.2 8.9375 140.289 9.02865 139.637 9.21094C139.533 9.23698 139.442 9.34115 139.364 9.52344C139.312 9.67969 139.26 10.0703 139.208 10.6953C139.182 11.2943 139.169 12.2318 139.169 13.5078V18.2344C139.169 18.9896 140.302 19.3672 142.567 19.3672H143.544C144.455 19.3672 145.393 18.9115 146.356 18C147.346 17.0885 147.841 15.8776 147.841 14.3672C147.841 10.7474 146.018 8.9375 142.372 8.9375ZM142.997 7.21875C143.882 7.21875 144.781 7.34896 145.692 7.60938C146.604 7.86979 147.502 8.26042 148.387 8.78125C149.273 9.30208 150.002 10.0443 150.575 11.0078C151.148 11.9714 151.434 13.0911 151.434 14.3672C151.434 15.4609 151.018 16.6068 150.184 17.8047C149.377 19.0026 148.27 19.9271 146.864 20.5781C146.604 20.6823 146.526 20.8125 146.63 20.9688C147.932 23.7031 149.429 25.9948 151.122 27.8438C153.622 30.5781 155.653 31.9453 157.216 31.9453C157.294 32.1016 157.333 32.2839 157.333 32.4922C157.333 32.7266 157.294 32.9219 157.216 33.0781C156.929 33.1562 156.578 33.1953 156.161 33.1953C152.515 33.1953 149.351 31.3203 146.669 27.5703C146.252 26.9974 145.77 26.3203 145.223 25.5391C144.703 24.7318 144.312 24.1589 144.052 23.8203C143.817 23.4557 143.531 23.0651 143.192 22.6484C142.88 22.2318 142.593 21.9193 142.333 21.7109C142.098 21.5026 141.838 21.3333 141.552 21.2031C141.265 21.099 140.783 21.0469 140.106 21.0469C139.898 21.0469 139.742 21.0599 139.637 21.0859C139.533 21.0859 139.429 21.138 139.325 21.2422C139.221 21.3464 139.169 21.5026 139.169 21.7109V27.4531C139.169 29.1979 139.273 30.3307 139.481 30.8516C139.611 31.1901 140.067 31.4635 140.848 31.6719C141.656 31.8802 142.229 31.9844 142.567 31.9844C142.671 31.9844 142.723 32.1667 142.723 32.5312C142.723 32.7656 142.697 32.9609 142.645 33.1172C140.041 32.987 138.348 32.9219 137.567 32.9219L132.802 33.1172C132.723 33.0391 132.684 32.8047 132.684 32.4141C132.684 32.0755 132.723 31.9062 132.802 31.9062C133.166 31.9062 133.674 31.8281 134.325 31.6719C134.976 31.5156 135.367 31.3203 135.497 31.0859C135.679 30.7734 135.77 29.5495 135.77 27.4141V12.6484C135.77 11.112 135.679 9.99219 135.497 9.28906C135.419 9.08073 135.028 8.88542 134.325 8.70312C133.648 8.52083 133.14 8.42969 132.802 8.42969C132.697 8.42969 132.645 8.27344 132.645 7.96094C132.645 7.6224 132.697 7.40104 132.802 7.29688L137.489 7.375C138.27 7.375 139.195 7.34896 140.262 7.29688C141.33 7.24479 142.242 7.21875 142.997 7.21875Z" fill="#333333"/>
<path d="M161.873 12.5703C161.873 10.9557 161.782 9.79688 161.6 9.09375C161.522 8.88542 161.144 8.70312 160.467 8.54688C159.816 8.36458 159.321 8.27344 158.983 8.27344C158.879 8.27344 158.827 8.10417 158.827 7.76562C158.827 7.45312 158.879 7.24479 158.983 7.14062C161.978 7.27083 163.54 7.33594 163.67 7.33594C164.087 7.33594 165.597 7.27083 168.202 7.14062C168.254 7.29688 168.28 7.49219 168.28 7.72656C168.28 8.09115 168.228 8.27344 168.123 8.27344C167.863 8.27344 167.394 8.36458 166.717 8.54688C166.04 8.72917 165.676 8.91146 165.623 9.09375C165.389 10.0052 165.272 11.2161 165.272 12.7266V27.5703C165.272 29.0807 165.389 30.2917 165.623 31.2031C165.676 31.3854 166.04 31.5677 166.717 31.75C167.394 31.9062 167.863 31.9844 168.123 31.9844C168.228 31.9844 168.28 32.1797 168.28 32.5703C168.28 32.7786 168.254 32.9609 168.202 33.1172C165.597 32.987 164.087 32.9219 163.67 32.9219C163.54 32.9219 161.978 32.987 158.983 33.1172C158.879 33.013 158.827 32.8177 158.827 32.5312C158.827 32.1667 158.879 31.9844 158.983 31.9844C159.321 31.9844 159.816 31.9062 160.467 31.75C161.144 31.5938 161.522 31.4115 161.6 31.2031C161.782 30.5 161.873 29.3411 161.873 27.7266V12.5703Z" fill="#333333"/>
<path d="M184.422 7.21875L192.234 27.8438C192.703 29.0677 193.081 30.0052 193.367 30.6562C193.523 31.0469 193.927 31.3724 194.578 31.6328C195.229 31.8672 195.711 31.9844 196.023 31.9844C196.128 31.9844 196.18 32.2318 196.18 32.7266C196.18 32.8307 196.154 32.9609 196.102 33.1172C193.497 32.987 192.065 32.9219 191.805 32.9219C191.779 32.9219 190.268 32.987 187.273 33.1172C187.169 33.013 187.117 32.8047 187.117 32.4922C187.143 32.1536 187.208 31.9844 187.312 31.9844C187.625 31.9844 188.016 31.9193 188.484 31.7891C188.953 31.6589 189.227 31.4896 189.305 31.2812C189.357 31.0729 189.383 30.8646 189.383 30.6562C189.383 30.3177 189.331 29.9271 189.227 29.4844C189.148 29.0156 189.07 28.651 188.992 28.3906L187.234 23.5469C187.156 23.4427 187.078 23.3906 187 23.3906C185.984 23.3125 184.995 23.2734 184.031 23.2734C182.677 23.2734 181.023 23.3385 179.07 23.4688L178.875 23.5859L177.195 27.8828C176.753 29.1849 176.531 30.0833 176.531 30.5781C176.531 30.9427 176.635 31.2031 176.844 31.3594C177.078 31.5417 177.456 31.6979 177.977 31.8281C178.497 31.9323 178.875 31.9844 179.109 31.9844C179.188 31.9844 179.227 32.1406 179.227 32.4531C179.253 32.7656 179.24 32.987 179.188 33.1172C176.583 32.987 175.242 32.9219 175.164 32.9219C174.643 32.9219 174.188 32.9349 173.797 32.9609C173.406 32.987 172.964 33.013 172.469 33.0391C172 33.0651 171.544 33.0911 171.102 33.1172C170.997 33.013 170.945 32.8177 170.945 32.5312C170.945 32.1667 170.997 31.9844 171.102 31.9844C171.414 31.9844 171.818 31.9193 172.312 31.7891C172.807 31.6589 173.146 31.4766 173.328 31.2422C173.875 30.5391 174.487 29.3151 175.164 27.5703L181.961 10.1094C182.013 9.97917 182.078 9.77083 182.156 9.48438C182.26 9.19792 182.339 8.98958 182.391 8.85938C182.443 8.70312 182.521 8.52083 182.625 8.3125C182.729 8.07812 182.82 7.90885 182.898 7.80469C182.977 7.70052 183.068 7.58333 183.172 7.45312C183.302 7.32292 183.432 7.23177 183.562 7.17969C183.719 7.1276 183.888 7.10156 184.07 7.10156L184.422 7.21875ZM179.891 21.3203C181.245 21.3724 182.169 21.3984 182.664 21.3984C183.81 21.3984 184.995 21.3594 186.219 21.2812L186.336 21.0859L183.172 12.4531L179.812 21.1641C179.812 21.2682 179.839 21.3203 179.891 21.3203Z" fill="#333333"/>
<g clip-path="url(#clip0)">
<path d="M11.0742 14.502C11.5593 14.502 11.9531 14.1082 11.9531 13.623C11.9531 13.1379 11.5593 12.7441 11.0742 12.7441C10.5891 12.7441 10.1953 13.1379 10.1953 13.623C10.1953 14.1082 10.5891 14.502 11.0742 14.502Z" fill="#333333"/>
<path d="M18.1055 16.2598H20.7422V26.4551C20.7422 26.9406 21.1356 27.334 21.6211 27.334H25.1367C25.6222 27.334 26.0156 26.9406 26.0156 26.4551V16.2598H28.6523C29.1378 16.2598 29.5313 15.8663 29.5313 15.3809V11.8652C29.5313 11.3798 29.1378 10.9863 28.6523 10.9863H26.0156V6.5918C26.0156 6.10634 25.6222 5.71289 25.1367 5.71289H21.6211C21.1356 5.71289 20.7422 6.10634 20.7422 6.5918V10.9863H18.1055C17.62 10.9863 17.2266 11.3798 17.2266 11.8652V15.3809C17.2266 15.8663 17.62 16.2598 18.1055 16.2598ZM18.9844 12.7441H21.6211C22.1066 12.7441 22.5 12.3507 22.5 11.8652V7.4707H24.2578V11.8652C24.2578 12.3507 24.6513 12.7441 25.1367 12.7441H27.7734V14.502H25.1367C24.6513 14.502 24.2578 14.8954 24.2578 15.3809V25.5762H22.5V15.3809C22.5 14.8954 22.1066 14.502 21.6211 14.502H18.9844V12.7441Z" fill="#333333"/>
<path d="M10.1953 41.3965H11.9531V44.0332C11.9531 44.3711 12.1468 44.679 12.4513 44.8253C12.7558 44.9719 13.1173 44.9307 13.381 44.7195L17.2266 41.643L21.0721 44.7195C21.2311 44.8466 21.4254 44.9121 21.6211 44.9121C21.7505 44.9121 21.8807 44.8836 22.0018 44.8253C22.3064 44.679 22.5 44.3711 22.5 44.0332V41.3965H39.1992C39.6847 41.3965 40.0781 41.0031 40.0781 40.5176V0.791016C40.0781 0.305557 39.6847 -0.0878906 39.1992 -0.0878906H12.832C8.49758 -0.0878906 4.92188 3.41503 4.92188 7.82227V36.1231C4.92188 39.031 7.28737 41.3965 10.1953 41.3965ZM10.1953 39.6387C8.25691 39.6387 6.67969 38.0615 6.67969 36.1231C6.67969 34.1847 8.25691 32.6074 10.1953 32.6074H38.3203V35.2442H11.0742C10.5888 35.2442 10.1953 35.6376 10.1953 36.1231C10.1953 36.6085 10.5888 37.002 11.0742 37.002H11.9531V39.6387H10.1953ZM20.7422 42.2047L17.7755 39.8313C17.4545 39.5745 16.9986 39.5745 16.6776 39.8313L13.7109 42.2047V37.002H20.7422V42.2047ZM22.5 39.6387V37.002H38.3203V39.6387H22.5ZM10.1953 2.26181V10.1074C10.1953 10.5929 10.5888 10.9863 11.0742 10.9863C11.5597 10.9863 11.9531 10.5929 11.9531 10.1074V1.73309C12.2436 1.69155 12.5375 1.66992 12.832 1.66992H38.3203V30.8496H11.9531V17.1387C11.9531 16.6532 11.5597 16.2598 11.0742 16.2598C10.5888 16.2598 10.1953 16.6532 10.1953 17.1387V30.8496C8.84571 30.8496 7.61353 31.3598 6.67969 32.1968V7.82227C6.67969 5.40974 8.07976 3.26294 10.1953 2.26181Z" fill="#333333"/>
</g>
<defs>
<clipPath id="clip0">
<rect width="45" height="45" fill="white"/>
</clipPath>
</defs>
</svg>
